<?xml version="1.0" standalone="no"?>
<!DOCTYPE svg PUBLIC "-//W3C//DTD SVG 20010904//EN"
 "http://www.w3.org/TR/2001/REC-SVG-20010904/DTD/svg10.dtd">
<svg version="1.0" xmlns="http://www.w3.org/2000/svg"
 width="745.000000pt" height="597.000000pt" viewBox="0 0 745.000000 597.000000"
 preserveAspectRatio="xMidYMid meet">

<g transform="translate(0.000000,597.000000) scale(0.100000,-0.100000)"
fill="#000000" stroke="none">
<path d="M3282 3500 c-7 -11 -12 -34 -11 -52 1 -30 2 -28 14 17 16 55 15 63
-3 35z"/>
<path d="M4714 3089 c-19 -22 -19 -22 1 -11 11 6 27 16 35 22 13 8 13 10 -1
10 -9 0 -24 -10 -35 -21z"/>
<path d="M2290 3041 c0 -33 5 -63 10 -66 6 -4 10 18 10 59 0 37 -4 66 -10 66
-6 0 -10 -26 -10 -59z"/>
<path d="M4785 3087 c-4 -10 -5 -38 -2 -63 4 -41 2 -46 -19 -54 -29 -11 -32
-35 -4 -27 17 4 20 0 20 -28 0 -19 4 -36 9 -40 11 -6 19 173 10 207 -6 21 -7
21 -14 5z"/>
<path d="M2337 3053 c-4 -3 -7 -35 -7 -70 0 -48 3 -63 14 -63 20 0 46 39 46
70 0 26 -25 70 -39 70 -4 0 -11 -3 -14 -7z"/>
<path d="M4837 3053 c-11 -10 -8 -143 2 -143 19 0 41 45 41 81 0 35 -29 77
-43 62z"/>
<path d="M2287 2905 c-3 -16 0 -24 7 -22 14 4 21 47 8 47 -5 0 -12 -11 -15
-25z"/>
</g>
</svg>
